<?xml version="1.0" standalone="no"?>
<!DOCTYPE svg PUBLIC "-//W3C//DTD SVG 20010904//EN"
 "http://www.w3.org/TR/2001/REC-SVG-20010904/DTD/svg10.dtd">
<svg version="1.0" xmlns="http://www.w3.org/2000/svg"
 width="615.000000pt" height="53.000000pt" viewBox="0 0 615.000000 53.000000"
 preserveAspectRatio="xMidYMid meet">

<g transform="translate(0.000000,53.000000) scale(0.100000,-0.100000)"
fill="#000000" stroke="none">
<path d="M3665 523 c-311 -3 -1185 -33 -1560 -53 -172 -10 -531 -41 -644 -56
-39 -5 -43 -4 -33 9 19 22 -8 25 -139 16 -379 -28 -756 -118 -1104 -263 -143
-59 -171 -91 -122 -140 15 -15 41 -25 74 -30 67 -9 256 9 363 35 489 116 1122
198 1755 229 121 6 310 15 420 20 110 5 430 14 710 20 789 16 1229 29 1475 45
485 31 771 38 1017 25 129 -7 236 -10 239 -7 9 9 -83 26 -296 56 -270 37 -269
37 -660 61 -301 19 -1044 42 -1205 37 -38 -1 -169 -3 -290 -4z"/>
</g>
</svg>
